<svg width="172" height="48" viewBox="0 0 172 48" fill="none" xmlns="http://www.w3.org/2000/svg">
    <path d="M63.76 10.49h-8.413v24.065h8.413c7.689 0 12.688-4.723 12.688-11.998 0-7.309-5-12.067-12.688-12.067zm-3.586 19.962V14.56h3.414c5.068 0 7.93 3 7.93 7.998 0 5-2.862 7.895-7.93 7.895h-3.414zM96.783 25.108c0 3.126-.827 5.54-2.482 7.24-1.632 1.701-3.862 2.552-6.689 2.552-1.747 0-3.31-.38-4.689-1.138-1.356-.758-2.425-1.862-3.207-3.31-.781-1.47-1.172-3.252-1.172-5.344 0-3.125.816-5.527 2.448-7.205 1.632-1.678 3.873-2.517 6.724-2.517 1.77 0 3.333.38 4.689 1.138 1.356.758 2.425 1.861 3.206 3.31.782 1.425 1.172 3.183 1.172 5.274zm-12.998 0c0 1.862.299 3.276.897 4.241.62.942 1.62 1.414 3 1.414 1.355 0 2.332-.472 2.93-1.414.62-.965.93-2.379.93-4.24 0-1.862-.31-3.253-.93-4.172-.598-.943-1.586-1.414-2.965-1.414-1.357 0-2.345.471-2.966 1.414-.597.92-.896 2.31-.896 4.171zm3.862 16.687c-.782 0-1.449-.184-2-.552-.529-.367-.793-1.022-.793-1.965 0-.965.264-1.632.793-2 .551-.344 1.218-.517 2-.517.758 0 1.413.173 1.965.518.552.367.827 1.034.827 2 0 .942-.275 1.597-.827 1.964-.552.368-1.207.552-1.965.552zm3.068-33.649c.322.506.736 1.08 1.241 1.724a61.387 61.387 0 0 0 3.069 3.344v.448h-3.413a53.748 53.748 0 0 1-1.966-1.275 13.842 13.842 0 0 1-1.965-1.69 13.128 13.128 0 0 1-1.93 1.655c-.69.483-1.334.92-1.931 1.31h-3.414v-.448c.437-.437.92-.942 1.448-1.517A39.183 39.183 0 0 0 83.44 9.87c.529-.644.954-1.218 1.276-1.724h6zM102.477 13.18c1.69 0 2.931-1.242 2.931-2.828 0-1.585-1.241-2.827-2.931-2.827-1.758 0-3 1.242-3 2.827 0 1.586 1.242 2.828 3 2.828zm-2.448 2.275v22.272c0 1.276-.517 1.827-2 1.827H96.65v4.103h2.138c3.689 0 6.068-1.552 6.068-5.965V15.455h-4.827zM108.936 34.555h4.827v-19.1h-4.827v19.1zm2.448-21.375c1.689 0 2.965-1.242 2.965-2.828 0-1.585-1.276-2.827-2.965-2.827-1.724 0-2.965 1.242-2.965 2.827 0 1.586 1.241 2.828 2.965 2.828zM144.563 34.555h4.827V23.35c0-5.275-3.241-8.17-7.826-8.17-2.793 0-5.31 1.482-6.551 3.654-1.311-2.38-3.758-3.655-6.724-3.655-2.379 0-4.413 1-5.62 2.586v-2.31h-4.827v19.1h4.827v-10.55c0-3.034 1.69-4.62 4.31-4.62 2.552 0 4.241 1.586 4.241 4.62v10.55h4.827v-10.55c0-3.034 1.689-4.62 4.275-4.62 2.552 0 4.241 1.586 4.241 4.62v10.55zM152.04 24.936c0 5.965 3.862 9.93 8.689 9.93 3.034 0 5.206-1.449 6.344-3.104v2.793h4.861v-19.1h-4.861v2.724c-1.138-1.586-3.241-3.034-6.31-3.034-4.861 0-8.723 3.827-8.723 9.791zm15.033.069c0 3.62-2.414 5.62-5.069 5.62-2.586 0-5.034-2.069-5.034-5.689s2.448-5.55 5.034-5.55c2.655 0 5.069 1.999 5.069 5.619z" fill="#fff"/>
    <path d="M23.452 40.235c9.844 0 17.824-7.997 17.824-17.86 0-9.864-7.98-17.86-17.824-17.86-9.844 0-17.824 7.996-17.824 17.86 0 9.863 7.98 17.86 17.824 17.86z" fill="url(#20mxsbw35a)"/>
    <path d="M44.557 7.939c3.186-7.021-3.851-6.1-10.786-.051.156.156.938.783 1.407 1.096 8.09-5.014 5.395.748 3.904 3.453-1.49 2.705-14.995 19.39-25.641 25.742-8.517 5.082-5.958-.926-3.748-4.441L8.6 32.328l-2.123 3.055C3.829 39.598.483 47.2 8.27 43.893 22.505 37.39 39.082 20.005 44.557 7.94z" fill="url(#4nfp04jscb)"/>
    <g filter="url(#l4athx1vxc)">
        <path d="m21.216 32.303 1.933-1.723c.657.606 1.293 1.183 1.9 1.723l-1.9 1.686c-.623-.53-1.269-1.092-1.933-1.686z" fill="url(#6t9rmiza5d)"/>
    </g>
    <path d="m12.833 8.126-1.147.847c-3.2-1.996-8.506-4.04-4.135 3.748 3.202 5.706 10.12 12.808 15.597 17.86.657.605 1.294 1.182 1.9 1.723a119.815 119.815 0 0 0 3.27 2.82c6.4 4.776 14.218 8.867 8.736-1.097l.782-1.097c4.98 4.807 11.884 19.123-7.072 6.88-.939-.607-3.851-2.619-7.616-5.82-.622-.53-1.268-1.093-1.932-1.687-5.782-5.17-12.944-12.737-18.133-22.06-4.904-8.813.604-9.645 9.75-2.117z" fill="url(#ypj0c09t6e)"/>
    <defs>
        <linearGradient id="20mxsbw35a" x1="41.276" y1="18.928" x2="5.618" y2="28.917" gradientUnits="userSpaceOnUse">
            <stop stop-color="#8D57DE"/>
            <stop offset="1" stop-color="#D6D6FC"/>
        </linearGradient>
        <linearGradient id="4nfp04jscb" x1="-13.463" y1="-5.472" x2="89.813" y2="-9.937" gradientUnits="userSpaceOnUse">
            <stop stop-color="#F81"/>
            <stop offset="1" stop-color="#FF1267"/>
        </linearGradient>
        <linearGradient id="6t9rmiza5d" x1="18.352" y1="29.656" x2="35.81" y2="28.482" gradientUnits="userSpaceOnUse">
            <stop stop-color="#F81"/>
            <stop offset="1" stop-color="#FF1267"/>
        </linearGradient>
        <linearGradient id="ypj0c09t6e" x1="-15.7" y1="-5.459" x2="87.868" y2="-9.957" gradientUnits="userSpaceOnUse">
            <stop stop-color="#F81"/>
            <stop offset="1" stop-color="#FF1267"/>
        </linearGradient>
        <filter id="l4athx1vxc" x="17.216" y="30.58" width="7.833" height="7.409" filterUnits="userSpaceOnUse" color-interpolation-filters="sRGB">
            <feFlood flood-opacity="0" result="BackgroundImageFix"/>
            <feBlend in="SourceGraphic" in2="BackgroundImageFix" result="shape"/>
            <feColorMatrix in="SourceAlpha" values="0 0 0 0 0 0 0 0 0 0 0 0 0 0 0 0 0 0 127 0" result="hardAlpha"/>
            <feOffset dx="-4" dy="4"/>
            <feGaussianBlur stdDeviation="2"/>
            <feComposite in2="hardAlpha" operator="arithmetic" k2="-1" k3="1"/>
            <feColorMatrix values="0 0 0 0 0.0999942 0 0 0 0 0.0802951 0 0 0 0 0.154167 0 0 0 0.16 0"/>
            <feBlend in2="shape" result="effect1_innerShadow_803_4083"/>
        </filter>
    </defs>
</svg>
